<svg width="385" height="385" viewBox="0 0 385 385" fill="none" xmlns="http://www.w3.org/2000/svg">
<g clip-path="url(#clip0_39_27)">
<path d="M142.99 294.345C142.99 294.345 128.763 302.619 153.115 305.419C182.617 308.784 197.695 308.302 230.207 302.148C230.207 302.148 238.755 307.508 250.691 312.151C177.81 343.389 85.7437 310.341 142.99 294.345ZM134.084 253.58C134.084 253.58 118.127 265.393 142.497 267.914C174.012 271.165 198.9 271.432 241.967 263.138C241.967 263.138 247.923 269.177 257.29 272.48C169.17 298.25 71.0209 274.513 134.084 253.58Z" fill="#5382A1"/>
<path d="M209.163 184.431C227.122 205.108 204.445 223.714 204.445 223.714C204.445 223.714 250.044 200.173 229.102 170.694C209.544 143.204 194.544 129.543 275.743 82.4477C275.743 82.4477 148.288 114.283 209.163 184.431Z" fill="#E76F00"/>
<path d="M305.556 324.497C305.556 324.497 316.085 333.172 293.961 339.884C251.892 352.629 118.866 356.478 81.9115 340.391C68.6279 334.613 93.5394 326.592 101.375 324.909C109.547 323.136 114.218 323.467 114.218 323.467C99.4445 313.059 18.7292 343.903 73.2189 352.736C221.818 376.836 344.101 341.884 305.556 324.497ZM149.83 211.344C149.83 211.344 82.1659 227.418 125.87 233.253C144.322 235.724 181.107 235.165 215.372 232.293C243.375 229.933 271.494 224.909 271.494 224.909C271.494 224.909 261.62 229.138 254.476 234.016C185.763 252.089 53.0212 243.682 91.2358 225.195C123.554 209.572 149.83 211.344 149.83 211.344ZM271.215 279.198C341.066 242.898 308.77 208.015 286.227 212.715C280.702 213.864 278.239 214.861 278.239 214.861C278.239 214.861 280.29 211.648 284.207 210.257C328.802 194.577 363.1 256.502 269.811 281.027C269.811 281.028 270.892 280.062 271.215 279.198Z" fill="#5382A1"/>
<path d="M229.102 6.39995C229.102 6.39995 267.787 45.1014 192.412 104.61C131.97 152.348 178.629 179.566 192.387 210.664C157.105 178.829 131.213 150.805 148.584 124.723C174.079 86.4343 244.71 67.8727 229.102 6.39995Z" fill="#E76F00"/>
<path d="M156.695 377.561C223.743 381.854 326.701 375.179 329.14 343.452C329.14 343.452 324.453 355.48 273.729 365.032C216.502 375.801 145.922 374.544 104.059 367.642C104.06 367.642 112.628 374.735 156.695 377.561Z" fill="#5382A1"/>
</g>
<defs>
<clipPath id="clip0_39_27">
<rect width="276" height="373" fill="white" transform="translate(54 6)"/>
</clipPath>
</defs>
</svg>
