<svg width="644" height="644" viewBox="0 0 644 644" fill="none" xmlns="http://www.w3.org/2000/svg">
<g clip-path="url(#clip0_32_24)">
<path d="M322 644C499.836 644 644 499.836 644 322C644 144.164 499.836 0 322 0C144.164 0 0 144.164 0 322C0 499.836 144.164 644 322 644Z" fill="#8892BF"/>
<path d="M286.102 184H324.742L313.821 242.057H348.542C367.584 242.464 381.768 246.719 391.103 254.824C400.623 262.927 403.425 278.332 399.505 301.026L380.744 402.245H341.543L359.462 305.585C361.328 295.451 360.769 288.259 357.783 284.004C354.798 279.749 348.358 277.622 338.463 277.622L307.381 277.318L284.42 402.245H245.78L286.102 184Z" fill="white"/>
<path fill-rule="evenodd" clip-rule="evenodd" d="M109.041 242.059H184.083C206.108 242.259 222.07 249.152 231.964 262.727C241.859 276.304 245.125 294.844 241.765 318.352C240.46 329.096 237.565 339.63 233.084 349.966C228.79 360.3 222.819 369.619 215.165 377.929C205.829 388.465 195.843 395.152 185.203 397.992C174.563 400.83 163.547 402.247 152.162 402.247H118.561L107.921 460H69L109.041 242.059ZM125.002 367.899L141.746 277.014H147.402C149.457 277.014 151.602 276.911 153.842 276.711C168.778 276.508 181.188 278.029 191.084 281.269C201.163 284.51 204.523 296.771 201.163 318.049C197.059 343.381 189.028 358.172 177.083 362.427C165.138 366.482 150.202 368.405 132.282 368.202H128.362C127.242 368.202 126.122 368.099 125.002 367.899Z" fill="white"/>
<path fill-rule="evenodd" clip-rule="evenodd" d="M516.04 242.059H440.997L400.957 460H439.877L450.519 402.247H484.12C495.505 402.247 506.52 400.83 517.16 397.992C527.802 395.152 537.786 388.465 547.122 377.929C554.776 369.619 560.747 360.3 565.041 349.966C569.521 339.63 572.417 329.096 573.721 318.352C577.082 294.844 573.818 276.304 563.921 262.727C554.026 249.152 538.067 242.259 516.04 242.059ZM473.704 277.014L456.959 367.899C458.08 368.099 459.2 368.202 460.32 368.202H464.239C482.161 368.405 497.095 366.482 509.041 362.427C520.985 358.172 529.016 343.381 533.122 318.049C536.482 296.771 533.122 284.51 523.041 281.269C513.146 278.029 500.735 276.508 485.799 276.711C483.559 276.911 481.415 277.014 479.359 277.014H473.704Z" fill="white"/>
</g>
<defs>
<clipPath id="clip0_32_24">
<rect width="644" height="644" fill="white"/>
</clipPath>
</defs>
</svg>
